<svg xmlns="http://www.w3.org/2000/svg" version="1.1" xmlns:xlink="http://www.w3.org/1999/xlink"
    xmlns:svgjs="http://svgjs.dev/svgjs" width="2000" height="348" viewBox="0 0 2000 348">
    <g transform="matrix(1,0,0,1,-1.2121212121212466,-0.4531776416022524)">
        <svg viewBox="0 0 396 69" data-background-color="#444444"
            preserveAspectRatio="xMidYMid meet" height="348" width="2000"
            xmlns="http://www.w3.org/2000/svg" xmlns:xlink="http://www.w3.org/1999/xlink">
            <g id="tight-bounds" transform="matrix(1,0,0,1,0.2400000000000091,0.08985418755906949)">
                <svg viewBox="0 0 395.52 68.82029162488188" height="68.82029162488188"
                    width="395.52">
                    <g>
                        <svg viewBox="0 0 565.3409821930726 98.3690616454905"
                            height="68.82029162488188" width="395.52">
                            <g>
                                <rect width="6.686432326385335" height="74.51527598416995"
                                    x="145.63080032117588" y="11.926892830660279" fill="#00d1cd"
                                    opacity="1" stroke-width="0" stroke="transparent"
                                    fill-opacity="1" class="rect-qz-0"
                                    data-fill-palette-color="secondary" rx="1%" id="qz-0"
                                    data-palette-color="#00d1cd"></rect>
                            </g>
                            <g transform="matrix(1,0,0,1,169.82098219307255,12.112254213705477)">
                                <svg viewBox="0 0 395.52 74.14455321807955"
                                    height="74.14455321807955" width="395.52">
                                    <g id="textblocktransform">
                                        <svg viewBox="0 0 395.52 74.14455321807955"
                                            height="74.14455321807955" width="395.52" id="textblock">
                                            <g>
                                                <svg viewBox="0 0 395.52 74.14455321807955"
                                                    height="74.14455321807955" width="395.52">
                                                    <g transform="matrix(1,0,0,1,0,0)">
                                                        <svg width="395.52"
                                                            viewBox="4.55 -35 240.69 45"
                                                            height="74.14455321807955"
                                                            data-palette-color="#91fd94">
                                                            <g class="wordmark-text-0"
                                                                data-fill-palette-color="primary"
                                                                id="text-0">
                                                                <path
                                                                    d="M37.7-26.75Q42.7-26.75 45.63-23.85 48.55-20.95 48.55-15.25L48.55-15.25 48.55 0 43.75 0 43.75-14.7Q43.75-18.55 41.98-20.5 40.2-22.45 36.9-22.45L36.9-22.45Q33.25-22.45 31.1-20.18 28.95-17.9 28.95-13.65L28.95-13.65 28.95 0 24.15 0 24.15-14.7Q24.15-18.55 22.38-20.5 20.6-22.45 17.3-22.45L17.3-22.45Q13.65-22.45 11.5-20.18 9.35-17.9 9.35-13.65L9.35-13.65 9.35 0 4.55 0 4.55-26.5 9.15-26.5 9.15-22.55Q10.6-24.6 12.95-25.68 15.3-26.75 18.3-26.75L18.3-26.75Q21.4-26.75 23.8-25.5 26.2-24.25 27.5-21.85L27.5-21.85Q29-24.15 31.68-25.45 34.35-26.75 37.7-26.75L37.7-26.75ZM68.75 0.3Q64.8 0.3 61.65-1.45 58.5-3.2 56.72-6.28 54.95-9.35 54.95-13.25L54.95-13.25Q54.95-17.15 56.72-20.23 58.5-23.3 61.65-25.03 64.8-26.75 68.75-26.75L68.75-26.75Q72.7-26.75 75.82-25.03 78.95-23.3 80.72-20.23 82.5-17.15 82.5-13.25L82.5-13.25Q82.5-9.35 80.72-6.28 78.95-3.2 75.82-1.45 72.7 0.3 68.75 0.3L68.75 0.3ZM68.75-3.9Q71.3-3.9 73.32-5.08 75.35-6.25 76.5-8.38 77.65-10.5 77.65-13.25L77.65-13.25Q77.65-16 76.5-18.13 75.35-20.25 73.32-21.4 71.3-22.55 68.75-22.55L68.75-22.55Q66.2-22.55 64.17-21.4 62.15-20.25 60.97-18.13 59.8-16 59.8-13.25L59.8-13.25Q59.8-10.5 60.97-8.38 62.15-6.25 64.17-5.08 66.2-3.9 68.75-3.9L68.75-3.9ZM103.3-26.75Q108.34-26.75 111.32-23.83 114.3-20.9 114.3-15.25L114.3-15.25 114.3 0 109.5 0 109.5-14.7Q109.5-18.55 107.64-20.5 105.8-22.45 102.34-22.45L102.34-22.45Q98.44-22.45 96.19-20.18 93.94-17.9 93.94-13.65L93.94-13.65 93.94 0 89.14 0 89.14-26.5 93.75-26.5 93.75-22.5Q95.19-24.55 97.67-25.65 100.14-26.75 103.3-26.75L103.3-26.75ZM143.99-26.5L148.54-26.5 148.54-3.6Q148.54 3.35 145.09 6.68 141.64 10 134.79 10L134.79 10Q131.04 10 127.64 8.97 124.24 7.95 122.14 6.05L122.14 6.05 124.44 2.35Q126.29 3.95 129.02 4.88 131.74 5.8 134.64 5.8L134.64 5.8Q139.29 5.8 141.52 3.6 143.74 1.4 143.74-3.1L143.74-3.1 143.74-5.2Q142.04-3.15 139.57-2.13 137.09-1.1 134.19-1.1L134.19-1.1Q130.39-1.1 127.32-2.73 124.24-4.35 122.49-7.28 120.74-10.2 120.74-13.95L120.74-13.95Q120.74-17.7 122.49-20.63 124.24-23.55 127.32-25.15 130.39-26.75 134.19-26.75L134.19-26.75Q137.19-26.75 139.77-25.65 142.34-24.55 143.99-22.4L143.99-22.4 143.99-26.5ZM134.74-5.3Q137.34-5.3 139.42-6.4 141.49-7.5 142.67-9.47 143.84-11.45 143.84-13.95L143.84-13.95Q143.84-17.8 141.29-20.18 138.74-22.55 134.74-22.55L134.74-22.55Q130.69-22.55 128.14-20.18 125.59-17.8 125.59-13.95L125.59-13.95Q125.59-11.45 126.77-9.47 127.94-7.5 130.02-6.4 132.09-5.3 134.74-5.3L134.74-5.3ZM169.04 0.3Q165.09 0.3 161.94-1.45 158.79-3.2 157.02-6.28 155.24-9.35 155.24-13.25L155.24-13.25Q155.24-17.15 157.02-20.23 158.79-23.3 161.94-25.03 165.09-26.75 169.04-26.75L169.04-26.75Q172.99-26.75 176.12-25.03 179.24-23.3 181.02-20.23 182.79-17.15 182.79-13.25L182.79-13.25Q182.79-9.35 181.02-6.28 179.24-3.2 176.12-1.45 172.99 0.3 169.04 0.3L169.04 0.3ZM169.04-3.9Q171.59-3.9 173.62-5.08 175.64-6.25 176.79-8.38 177.94-10.5 177.94-13.25L177.94-13.25Q177.94-16 176.79-18.13 175.64-20.25 173.62-21.4 171.59-22.55 169.04-22.55L169.04-22.55Q166.49-22.55 164.47-21.4 162.44-20.25 161.27-18.13 160.09-16 160.09-13.25L160.09-13.25Q160.09-10.5 161.27-8.38 162.44-6.25 164.47-5.08 166.49-3.9 169.04-3.9L169.04-3.9ZM214.39-35L219.34-35 219.34 0 214.54 0 214.54-4.95Q210.99 0.4 203.14 0.4L203.14 0.4Q196.89 0.4 193.36-3.4 189.84-7.2 189.84-14.25L189.84-14.25 189.84-35 194.84-35 194.84-14.4Q194.84-9.35 197.34-6.7 199.84-4.05 204.19-4.05L204.19-4.05Q208.89-4.05 211.64-6.85 214.39-9.65 214.39-15.15L214.39-15.15 214.39-35ZM245.24-30.65L238.49-30.65 238.49-4.35 245.24-4.35 245.24 0 226.74 0 226.74-4.35 233.49-4.35 233.49-30.65 226.74-30.65 226.74-35 245.24-35 245.24-30.65Z"
                                                                    fill="#91fd94"
                                                                    data-fill-palette-color="primary"></path>
                                                            </g>
                                                        </svg>
                                                    </g>
                                                </svg>
                                            </g>
                                        </svg>
                                    </g>
                                </svg>
                            </g>
                            <g>
                                <svg viewBox="0 0 128.12705077566454 98.3690616454905"
                                    height="98.3690616454905" width="128.12705077566454">
                                    <g>
                                        <svg xmlns="http://www.w3.org/2000/svg"
                                            xmlns:xlink="http://www.w3.org/1999/xlink" version="1.1"
                                            x="8" y="0" viewBox="5 10.521 90 78.957"
                                            enable-background="new 0 0 100 100" xml:space="preserve"
                                            height="98.3690616454905" width="112.12705077566454"
                                            class="icon-icon-0" data-fill-palette-color="accent"
                                            id="icon-0"><path d="M83.953 49.734c-0.144-21.646-17.795-39.213-39.474-39.213C22.71 10.522 5 28.232 5 50c0 1.508 0.088 2.995 0.253 4.459 0.69-1.602 1.66-3.14 2.817-4.577C8.134 29.86 24.441 13.59 44.478 13.59c19.486 0 35.445 15.388 36.366 34.65-2.43-1.309-5.107-3.074-7.977-5.45-26.308-21.772-40.017-0.369-40.365 0.147 11.708 0.456 20.766 7.845 32.814 8.835 1.909 0.157-1.327 1.778-2.256 1.701-5.707-0.469-10.268-2.652-15.174-4.761-1.682-0.632-3.387-1.288-5.164-1.922-0.723-0.258-1.429-0.52-2.125-0.776-2.777-0.756-5.542-1.128-8.244-1.155 0.022 0.401 0.053 0.859 0.128 1.384 0.398 1.515 1.299 3.649 3.197 6.618 10.417 11.73 20.981 14.919 30.251 14.181 4.427-0.352 8.559-1.601 12.239-3.243C72.72 77.053 59.672 86.41 44.478 86.41c-14.593 0-27.206-8.631-33.009-21.055C7.955 52.097 22.908 44.974 32.245 45.025c0.018 0 0.037 0 0.055 0v-0.167-1.753c-1.635-0.053-3.319 0.025-5.072 0.281-3.126 0.455-6.576 1.31-9.66 2.684-3.874 1.971-7.343 5.341-8.985 9.57-0.014 0.073-0.028 0.146-0.04 0.22-0.004-0.027-0.009-0.053-0.013-0.08-1.191 3.157-1.365 6.785 0.064 10.665 6.248 13.58 19.983 23.033 35.886 23.033 17.664 0 32.655-11.662 37.68-27.691C90.02 57.354 95 51.782 95 51.782S90.78 52.627 83.953 49.734z" fill="#00ffff" data-fill-palette-color="accent"></path></svg>
                                    </g>
                                </svg>
                            </g>
                        </svg>
                    </g>
                    <defs></defs>
                </svg>
                <rect width="395.52" height="68.82029162488188" fill="none" stroke="none"
                    visibility="hidden"></rect>
            </g>
        </svg>
    </g>
</svg>